<svg width="133" height="77" viewBox="0 0 133 77" fill="none" xmlns="http://www.w3.org/2000/svg">
<path d="M3.8147e-06 73.3638C3.8147e-06 75.2893 1.73442 76.8502 3.87377 76.8502C6.01312 76.8502 7.74754 75.2893 7.74754 73.3638V71.0396C7.74754 61.6205 10.3251 52.7295 14.8797 44.8956C28.3536 60.4421 48.9022 69.8775 71.5355 69.8775C93.5953 69.8775 114.784 60.5906 128.351 44.3106L131.45 40.5918C131.454 40.5862 131.458 40.5802 131.463 40.5746C132.478 39.343 132.473 37.6518 131.463 36.4251C131.458 36.4195 131.455 36.4135 131.45 36.4079L128.351 32.6891C114.967 16.6287 93.8985 7.12222 71.5355 7.12222C48.912 7.12222 28.3573 16.5534 14.8797 32.1041C10.3251 24.2706 7.74754 15.3796 7.74754 5.96055V3.63629C7.74754 1.71088 6.01312 0.149902 3.87377 0.149902C1.73442 0.149902 3.8147e-06 1.71088 3.8147e-06 3.63629V5.96055C3.8147e-06 17.5823 3.47968 28.7399 9.99639 38.5002C3.47968 48.2602 3.8147e-06 59.4178 3.8147e-06 71.0396L3.8147e-06 73.3638ZM122.153 36.873L123.509 38.5L122.153 40.1269C113.283 50.7704 100.494 58.2106 86.3429 61.3026C80.9436 54.7326 77.9918 46.7162 77.9918 38.5C77.9918 30.2837 80.9436 22.2676 86.3429 15.6973C100.494 18.7893 113.283 26.2295 122.153 36.873ZM71.5355 14.0952C73.6883 14.0952 75.8297 14.2017 77.9539 14.3995C72.9492 21.58 70.2443 29.9492 70.2443 38.5C70.2443 47.0507 72.9492 55.4201 77.9539 62.6004C75.8297 62.798 73.6883 62.9047 71.5355 62.9047C49.9055 62.9047 30.7587 53.2418 19.2188 38.5C30.7587 23.7583 49.9055 14.0952 71.5355 14.0952Z" fill="#00519C"/>
</svg>
